# xmcd
#
# Track frame offsets:
#	150
#	15565
#	29640
#	47071
#	64335
#	79693
#	97265
#	115188
#	127012
#	144950
#	161766
#
# Disc length: 2381 seconds
#
# Revision: 0
# Processed by: cddbd v1.5.2PL0 Copyright (c) Steve Scherf et al.
# Submitted via: EasyCDDAExtractor 15.3.0.1
#
DISCID=98094b0b
DTITLE=Baillie and The Boys - Lovin' Every Minute
DYEAR=1996
DGENRE=Country
TTITLE0=Track 1I've Been There
TTITLE1=God's Honest Truth
TTITLE2=Some Kind Of Luck
TTITLE3=Both Sides Now
TTITLE4=You're My Weakness
TTITLE5=I Can't Help Myself
TTITLE6=I Know A Goodbye
TTITLE7=Lovin' Every Minute
TTITLE8=If I Didn't Love You
TTITLE9=Heartless Night
TTITLE10=While The Forgettin's Good
EXTD=
EXTT0=
EXTT1=
EXTT2=
EXTT3=
EXTT4=
EXTT5=
EXTT6=
EXTT7=
EXTT8=
EXTT9=
EXTT10=
PLAYORDER=
